<svg width="64" height="64" viewBox="0 0 64 64" fill="none" xmlns="http://www.w3.org/2000/svg">
<path d="M61.4818 4.21805L55.9297 17.0827C54.844 16.1955 53.6349 15.4315 52.3024 14.7907C51.0192 14.1007 49.6867 13.7556 48.3049 13.7556C47.2192 13.7556 46.1828 13.9774 45.1957 14.4211C44.2581 14.8647 43.3944 15.4561 42.6048 16.1955C41.8151 16.9348 41.1242 17.7728 40.532 18.7093C39.9398 19.5965 39.4463 20.4837 39.0514 21.3709L37.5709 25.5852C38.6073 27.754 39.619 29.8241 40.606 31.7957C41.445 33.4716 42.3087 35.1721 43.197 36.8972C44.0853 38.5731 44.8256 39.9039 45.4178 40.8897C46.3555 42.3191 47.2932 43.7978 48.2309 45.3258C49.1685 46.8045 50.2049 48.16 51.34 49.3922C51.8335 49.9344 52.4258 50.3041 53.1167 50.5013C53.857 50.6491 54.5232 50.7231 55.1154 50.7231C56.0531 50.7231 56.9414 50.5998 57.7804 50.3534C58.6194 50.1069 59.409 49.7865 60.1493 49.3922L62 51.7581C61.3091 52.8425 60.4701 53.9269 59.4831 55.0113C58.496 56.0957 57.4103 57.0815 56.2258 57.9687C55.0908 58.8559 53.857 59.5706 52.5245 60.1128C51.2413 60.7043 49.9335 61 48.601 61C47.4166 61 46.3555 60.8028 45.4178 60.4085C44.5295 60.0635 43.7152 59.5952 42.9749 59.0038C42.2346 58.363 41.5437 57.6236 40.9021 56.7857C40.2606 55.9478 39.5943 55.0852 38.9034 54.198C38.3605 53.3601 37.7683 52.3496 37.1267 51.1667C36.5345 49.9344 35.9176 48.6775 35.276 47.396C34.6345 46.1145 33.9929 44.8822 33.3513 43.6992C32.7097 42.467 32.0928 41.4319 31.5006 40.594C31.2539 41.4319 31.0318 42.2698 30.8344 43.1078C30.637 43.7978 30.4149 44.5125 30.1681 45.2519C29.9214 45.9912 29.6993 46.5581 29.5019 46.9524C28.7616 48.5297 27.8239 50.1562 26.6888 51.8321C25.5537 53.5079 24.2459 55.0359 22.7654 56.416C21.3342 57.7469 19.7549 58.8559 18.0276 59.7431C16.3003 60.581 14.4743 61 12.5496 61C10.8223 61 9.14429 60.655 7.51568 59.9649C5.88708 59.3241 4.38185 58.4616 3 57.3772L7.66374 45.104C9.24299 46.0898 10.9703 46.977 12.8457 47.7657C14.721 48.505 16.5964 48.8747 18.4718 48.8747C19.064 48.8747 19.6809 48.8254 20.3225 48.7268C20.964 48.5789 21.5809 48.3818 22.1731 48.1353C22.8147 47.8396 23.3823 47.4946 23.8758 47.1002C24.3693 46.6566 24.7394 46.1391 24.9862 45.5476C25.3317 44.9068 25.7018 44.0689 26.0966 43.0338C26.4914 41.9987 26.8862 40.9637 27.2811 39.9286C27.7252 38.7456 28.1694 37.4887 28.6136 36.1579L14.6964 13.9035C14.0548 13.1642 13.2652 12.5727 12.3275 12.1291C11.4391 11.6362 10.5015 11.3897 9.51443 11.3897C8.67545 11.3897 7.88582 11.5622 7.14555 11.9073C6.40527 12.203 5.68967 12.622 4.99875 13.1642L3 10.5764C3.69092 9.54135 4.50523 8.53091 5.44291 7.54511C6.42995 6.51002 7.49101 5.59816 8.6261 4.80952C9.76119 3.9716 10.9703 3.30618 12.2535 2.81328C13.5366 2.27109 14.8444 2 16.1769 2C17.8055 2 19.3107 2.41896 20.6926 3.25689C22.0744 4.04553 23.3576 5.03133 24.542 6.21429C25.7265 7.39724 26.8122 8.67878 27.7992 10.0589C28.7863 11.439 29.6746 12.7206 30.4642 13.9035C30.8591 14.4457 31.2785 15.1358 31.7227 15.9737C32.2162 16.7623 32.6851 17.551 33.1292 18.3396C33.6721 19.2268 34.1903 20.188 34.6838 21.2231C35.1773 20.0401 35.6955 18.8571 36.2384 17.6742C36.6826 16.6884 37.1267 15.6779 37.5709 14.6429C38.0644 13.5585 38.5086 12.622 38.9034 11.8333C39.6437 10.4532 40.4826 9.17168 41.4203 7.98872C42.358 6.80576 43.3944 5.77068 44.5295 4.88346C45.7139 3.99624 46.9971 3.30618 48.3789 2.81328C49.7608 2.27109 51.266 2 52.8946 2C54.4245 2 55.9051 2.19716 57.3363 2.59148C58.7675 2.9858 60.1493 3.52799 61.4818 4.21805Z" fill="white"/>
</svg>
