<svg width="64" height="64" viewBox="0 0 64 64" fill="none" xmlns="http://www.w3.org/2000/svg">
<path d="M2 5.33333C2 3.49238 3.49238 2 5.33333 2H58.6667C60.5076 2 62 3.49238 62 5.33333V42C62 43.8409 58.6667 45.3333 58.6667 45.3333L25.3333 62L35.3333 45.3333H5.33333C3.49239 45.3333 2 43.8409 2 42V5.33333Z" fill="white"/>
<path d="M23.4376 15.8637C24.6033 15.3235 26.0279 14.8778 27.7117 14.5267C29.4213 14.1756 31.1827 14 32.9959 14C34.4206 14 35.6121 14.1756 36.5706 14.5267C37.5549 14.8778 38.332 15.391 38.9018 16.0663C39.4717 16.7145 39.8732 17.5114 40.1063 18.4567C40.3654 19.3751 40.4949 20.4015 40.4949 21.5359C40.4949 22.9134 40.4431 24.2775 40.3395 25.628C40.2359 26.9785 40.184 28.4101 40.184 29.9227C40.184 30.949 40.2488 31.9484 40.3783 32.9208C40.5078 33.8932 40.7151 34.825 41 35.7164H36.5706L35.6769 32.5562H35.2106C34.5371 33.5015 33.6823 34.3118 32.6462 34.9871C31.6101 35.6624 30.2761 36 28.6442 36C27.6598 36 26.7532 35.8514 25.9243 35.5543C25.1213 35.2572 24.4219 34.8386 23.8262 34.2983C23.2563 33.7311 22.803 33.0694 22.4663 32.3131C22.1554 31.5568 22 30.733 22 29.8416C22 27.4377 22.7641 25.628 24.2924 24.4125C25.8466 23.17 28.1909 22.5488 31.3252 22.5488C32.0504 22.5488 32.7757 22.6163 33.501 22.7514C34.2263 22.8594 34.7314 22.9405 35.0164 22.9945C35.0941 22.4273 35.1329 21.9411 35.1329 21.5359C35.1329 20.5095 34.8868 19.7532 34.3947 19.267C33.9025 18.7808 32.983 18.5378 31.636 18.5378C30.3926 18.5378 29.1752 18.6998 27.9836 19.0239C26.818 19.3211 25.7819 19.6992 24.8753 20.1584L23.4376 15.8637ZM30.5481 31.4622C31.7655 31.4622 32.7369 31.1651 33.4622 30.5709C34.1875 29.9767 34.7185 29.3554 35.0552 28.7072V26.2762C34.9257 26.2222 34.7185 26.1682 34.4335 26.1142C34.1745 26.0602 33.8766 26.0061 33.5399 25.9521C33.229 25.8981 32.9052 25.8576 32.5685 25.8306C32.2577 25.8036 31.9727 25.7901 31.7137 25.7901C30.3149 25.7901 29.2788 26.0602 28.6053 26.6004C27.9318 27.1136 27.5951 27.7618 27.5951 28.5451C27.5951 29.5175 27.8541 30.2468 28.3722 30.733C28.9162 31.2192 29.6414 31.4622 30.5481 31.4622Z" fill="#939393"/>
</svg>
